<svg xmlns="http://www.w3.org/2000/svg" viewBox="0.0 0.0 1024.0 1024.0" width="1024" height="1024">
  <title>pastebook</title>
  <rect x="0.0" y="0.0" width="1024.0" height="1024.0" rx="229.0688" fill="#F7F4EA"/>
  <path fill="#2E6A4B" d="M399.90 838.22Q396.62 838.22 390.47 838.63Q384.32 839.04 380.22 831.66Q376.94 827.56 370.38 815.67Q363.82 803.78 367.92 782.46Q372.02 768.52 374.48 754.99Q376.94 741.46 376.94 734.90Q376.94 731.62 378.99 722.19Q381.04 712.76 381.04 708.66Q385.14 702.10 387.60 690.62Q390.06 679.14 390.06 670.12Q390.06 660.28 399.90 652.08Q399.90 645.52 402.77 635.68Q405.64 625.84 405.64 622.56Q408.10 611.08 416.71 581.97Q425.32 552.86 438.03 515.96Q450.74 479.06 463.04 443.80Q475.34 408.54 485.18 383.94Q495.02 360.98 501.58 341.30Q508.14 321.62 508.14 313.42Q508.14 310.14 509.78 308.09Q511.42 306.04 517.16 299.48Q525.36 291.28 538.89 293.33Q552.42 295.38 561.44 301.94Q568.00 312.60 570.87 321.21Q573.74 329.82 570.46 347.86Q570.46 360.16 564.72 370.41Q558.98 380.66 554.47 386.81Q549.96 392.96 551.60 392.14Q587.68 370.00 616.79 367.95Q645.90 365.90 665.99 377.79Q686.08 389.68 696.74 410.18Q707.40 430.68 707.40 454.46Q707.40 464.30 700.84 480.70Q694.28 497.10 686.08 511.45Q677.88 525.80 672.96 530.72Q669.68 530.72 666.40 536.05Q663.12 541.38 659.84 547.94Q653.28 556.14 638.11 566.39Q622.94 576.64 607.36 582.79Q591.78 588.94 585.22 586.48Q585.22 586.48 583.17 588.12Q581.12 589.76 581.12 593.65Q581.12 595.21 569.64 600.27Q558.16 605.34 542.58 609.44Q527.00 613.54 513.88 613.54Q496.66 613.54 489.28 606.98Q487.64 608.62 485.59 611.90Q483.54 615.18 483.54 617.64Q483.54 622.56 479.85 633.22Q476.16 643.88 471.24 652.49Q466.32 661.10 462.22 661.10Q462.22 661.10 460.58 663.56Q458.94 666.02 462.22 670.12Q462.22 670.12 461.81 679.55Q461.40 688.98 457.30 695.54Q457.30 702.10 454.84 715.22Q452.38 728.34 449.10 734.90Q449.10 744.74 446.23 754.17Q443.36 763.60 440.08 763.60Q436.80 764.42 435.98 773.85Q435.16 783.28 435.16 787.38Q434.34 807.88 422.04 823.05Q409.74 838.22 399.90 838.22ZM504.86 551.22Q511.42 551.22 528.64 545.48Q545.86 539.74 564.72 531.13Q583.58 522.52 594.24 513.50Q615.56 494.64 627.45 476.60Q639.34 458.56 625.40 436.42Q618.84 424.94 604.43 426.99Q590.02 429.04 572.86 440.52Q555.70 452.00 537.66 469.22Q527.82 479.88 519.62 493.82Q511.42 507.76 506.09 520.88Q500.76 534.00 499.94 542.61Q499.12 551.22 504.86 551.22Z"/>
  <g opacity="0.85">
    <path fill="#F2CF6B" d="M270.41 342.26L701.49 185.35L723.84 198.85L711.55 224.96L737.75 237.06L729.31 261.77L751.65 275.27L739.36 301.37L756.47 312.45L313.84 473.56L295.34 458.66L307.63 432.55L281.43 420.45L289.88 395.74L267.53 382.25L279.82 356.14Z"/>
    <path fill="#FFFFFF" fill-opacity="0.28" d="M260.57 363.14L722.45 195.03L726.62 206.49L264.75 374.60Z"/>
  </g>
</svg>
